<svg width="209" height="192" viewBox="0 0 209 192" fill="none" xmlns="http://www.w3.org/2000/svg">
<mask id="mask0_108_39" style="mask-type:alpha" maskUnits="userSpaceOnUse" x="7" y="50" width="197" height="93">
<path d="M60.544 141L32.256 101.448L32.256 141H7.168L7.168 50.76L32.256 50.76L32.256 89.672L60.288 50.76L89.216 50.76L56.064 94.536L90.88 141L60.544 141ZM112.203 142.024C107.766 142.024 104.182 140.829 101.451 138.44C98.8057 135.965 97.483 132.851 97.483 129.096C97.483 125.341 98.8057 122.227 101.451 119.752C104.182 117.277 107.766 116.04 112.203 116.04C116.555 116.04 120.054 117.277 122.699 119.752C125.43 122.227 126.795 125.341 126.795 129.096C126.795 132.765 125.43 135.837 122.699 138.312C120.054 140.787 116.555 142.024 112.203 142.024ZM150.703 142.024C146.266 142.024 142.682 140.829 139.951 138.44C137.306 135.965 135.983 132.851 135.983 129.096C135.983 125.341 137.306 122.227 139.951 119.752C142.682 117.277 146.266 116.04 150.703 116.04C155.055 116.04 158.554 117.277 161.199 119.752C163.93 122.227 165.295 125.341 165.295 129.096C165.295 132.765 163.93 135.837 161.199 138.312C158.554 140.787 155.055 142.024 150.703 142.024ZM189.203 142.024C184.766 142.024 181.182 140.829 178.451 138.44C175.806 135.965 174.483 132.851 174.483 129.096C174.483 125.341 175.806 122.227 178.451 119.752C181.182 117.277 184.766 116.04 189.203 116.04C193.555 116.04 197.054 117.277 199.699 119.752C202.43 122.227 203.795 125.341 203.795 129.096C203.795 132.765 202.43 135.837 199.699 138.312C197.054 140.787 193.555 142.024 189.203 142.024Z" fill="#0C0C0C"/>
</mask>
<g mask="url(#mask0_108_39)">
<path d="M29.8008 344.616L56.5988 352.266C71.399 356.491 86.8218 347.918 91.0467 333.118V333.118C95.2716 318.318 110.694 309.745 125.495 313.97V313.97C140.295 318.195 155.718 309.622 159.943 294.822V294.822C164.167 280.021 179.59 271.449 194.39 275.673V275.673C209.191 279.898 224.613 271.325 228.838 256.525V256.525C233.063 241.725 248.486 233.152 263.286 237.377V237.377C278.086 241.602 293.509 233.029 297.734 218.229V218.229C301.959 203.429 317.382 194.856 332.182 199.081L358.98 206.731" stroke="#FF9A9A" stroke-width="76.1371"/>
<path d="M21.5605 329.711L48.3586 337.361C63.1587 341.586 78.5816 333.013 82.8065 318.213V318.213C87.0314 303.413 102.454 294.84 117.254 299.065V299.065C132.055 303.29 147.477 294.717 151.702 279.917V279.917C155.927 265.117 171.35 256.544 186.15 260.769V260.769C200.95 264.994 216.373 256.421 220.598 241.62V241.62C224.823 226.82 240.246 218.247 255.046 222.472V222.472C269.846 226.697 285.269 218.124 289.494 203.324V203.324C293.719 188.524 309.142 179.951 323.942 184.176L350.74 191.826" stroke="#FFACAD" stroke-width="76.1371"/>
<path d="M13.3887 314.935L40.1867 322.585C54.9869 326.81 70.4097 318.237 74.6346 303.437V303.437C78.8595 288.637 94.2824 280.064 109.083 284.289V284.289C123.883 288.514 139.306 279.941 143.53 265.14V265.14C147.755 250.34 163.178 241.767 177.978 245.992V245.992C192.779 250.217 208.201 241.644 212.426 226.844V226.844C216.651 212.044 232.074 203.471 246.874 207.696V207.696C261.674 211.921 277.097 203.348 281.322 188.548V188.548C285.547 173.748 300.97 165.175 315.77 169.4L342.568 177.049" stroke="#FF9A9A" stroke-width="76.1371"/>
<path d="M5.14453 300.03L31.9426 307.68C46.7427 311.905 62.1656 303.332 66.3905 288.532V288.532C70.6154 273.732 86.0382 265.159 100.838 269.384V269.384C115.639 273.609 131.061 265.036 135.286 250.236V250.236C139.511 235.436 154.934 226.863 169.734 231.087V231.087C184.534 235.312 199.957 226.739 204.182 211.939V211.939C208.407 197.139 223.83 188.566 238.63 192.791V192.791C253.43 197.016 268.853 188.443 273.078 173.643V173.643C277.303 158.843 292.726 150.27 307.526 154.495L334.324 162.145" stroke="#FFACAD" stroke-width="76.1371"/>
<path d="M-3.55859 284.375L23.2394 292.025C38.0396 296.25 53.4625 287.677 57.6874 272.877V272.877C61.9123 258.077 77.3351 249.504 92.1353 253.729V253.729C106.935 257.953 122.358 249.381 126.583 234.58V234.58C130.808 219.78 146.231 211.207 161.031 215.432V215.432C175.831 219.657 191.254 211.084 195.479 196.284V196.284C199.704 181.484 215.127 172.911 229.927 177.136V177.136C244.727 181.361 260.15 172.788 264.375 157.988V157.988C268.6 143.188 284.023 134.615 298.823 138.84L325.621 146.489" stroke="#FF9A9A" stroke-width="76.1371"/>
<path d="M-11.8008 269.47L14.9973 277.12C29.7974 281.345 45.2203 272.772 49.4452 257.972V257.972C53.6701 243.172 69.0929 234.599 83.8931 238.824V238.824C98.6932 243.049 114.116 234.476 118.341 219.676V219.676C122.566 204.875 137.989 196.303 152.789 200.527V200.527C167.589 204.752 183.012 196.179 187.237 181.379V181.379C191.462 166.579 206.885 158.006 221.685 162.231V162.231C236.485 166.456 251.908 157.883 256.133 143.083V143.083C260.358 128.283 275.78 119.71 290.581 123.935L317.379 131.585" stroke="#FFACAD" stroke-width="76.1371"/>
<path d="M-20.0762 254.583L6.72186 262.233C21.522 266.458 36.9449 257.885 41.1698 243.085V243.085C45.3947 228.285 60.8175 219.712 75.6177 223.937V223.937C90.4178 228.161 105.841 219.589 110.066 204.788V204.788C114.291 189.988 129.713 181.415 144.514 185.64V185.64C159.314 189.865 174.737 181.292 178.961 166.492V166.492C183.186 151.692 198.609 143.119 213.409 147.344V147.344C228.209 151.569 243.632 142.996 247.857 128.196V128.196C252.082 113.396 267.505 104.823 282.305 109.048L309.103 116.697" stroke="#FF9A9A" stroke-width="76.1371"/>
<path d="M-28.3184 239.679L-1.52032 247.329C13.2798 251.553 28.7027 242.981 32.9276 228.18V228.18C37.1525 213.38 52.5754 204.807 67.3755 209.032V209.032C82.1757 213.257 97.5985 204.684 101.823 189.884V189.884C106.048 175.084 121.471 166.511 136.271 170.736V170.736C151.071 174.961 166.494 166.388 170.719 151.588V151.588C174.944 136.788 190.367 128.215 205.167 132.44V132.44C219.967 136.664 235.39 128.092 239.615 113.291V113.291C243.84 98.4913 259.263 89.9183 274.063 94.1433L300.861 101.793" stroke="#FFACAD" stroke-width="76.1371"/>
<path d="M-37.0215 224.023L-10.2234 231.673C4.5767 235.898 19.9996 227.325 24.2245 212.525V212.525C28.4494 197.725 43.8722 189.152 58.6724 193.377V193.377C73.4725 197.602 88.8954 189.029 93.1203 174.229V174.229C97.3452 159.429 112.768 150.856 127.568 155.081V155.081C142.368 159.306 157.791 150.733 162.016 135.932V135.932C166.241 121.132 181.664 112.559 196.464 116.784V116.784C211.264 121.009 226.687 112.436 230.912 97.6361V97.6361C235.137 82.836 250.56 74.2631 265.36 78.488L292.158 86.1379" stroke="#FF9A9A" stroke-width="76.1371"/>
<path d="M-45.2637 209.119L-18.4656 216.769C-3.66549 220.993 11.7574 212.421 15.9823 197.62V197.62C20.2072 182.82 35.63 174.247 50.4302 178.472V178.472C65.2303 182.697 80.6532 174.124 84.8781 159.324V159.324C89.103 144.524 104.526 135.951 119.326 140.176V140.176C134.126 144.401 149.549 135.828 153.774 121.028V121.028C157.999 106.228 173.422 97.6546 188.222 101.88V101.88C203.022 106.104 218.445 97.5315 222.67 82.7314V82.7314C226.895 67.9312 242.318 59.3583 257.118 63.5832L283.916 71.2331" stroke="#FFACAD" stroke-width="76.1371"/>
<path d="M-53.4355 194.342L-26.6375 201.992C-11.8374 206.217 3.5855 197.644 7.81041 182.844V182.844C12.0353 168.043 27.4582 159.47 42.2583 163.695V163.695C57.0585 167.92 72.4813 159.347 76.7062 144.547V144.547C80.9311 129.747 96.354 121.174 111.154 125.399V125.399C125.954 129.624 141.377 121.051 145.602 106.251V106.251C149.827 91.4507 165.25 82.8778 180.05 87.1027V87.1027C194.85 91.3276 210.273 82.7547 214.498 67.9545V67.9545C218.723 53.1544 234.146 44.5814 248.946 48.8063L275.744 56.4562" stroke="#FF9A9A" stroke-width="76.1371"/>
<path d="M-61.6777 179.438L-34.8797 187.087C-20.0796 191.312 -4.65669 182.739 -0.431782 167.939V167.939C3.79312 153.139 19.216 144.566 34.0161 148.791V148.791C48.8163 153.016 64.2391 144.443 68.464 129.643V129.643C72.6889 114.843 88.1118 106.27 102.912 110.495V110.495C117.712 114.72 133.135 106.147 137.36 91.3465V91.3465C141.585 76.5464 157.008 67.9735 171.808 72.1984V72.1984C186.608 76.4233 202.031 67.8504 206.256 53.0502V53.0502C210.481 38.2501 225.903 29.6771 240.704 33.902L267.502 41.5519" stroke="#FFACAD" stroke-width="76.1371"/>
<path d="M-70.3809 163.782L-43.5828 171.432C-28.7827 175.657 -13.3598 167.084 -9.13491 152.284V152.284C-4.91 137.484 10.5129 128.911 25.313 133.136V133.136C40.1132 137.361 55.536 128.788 59.7609 113.988V113.988C63.9858 99.1875 79.4087 90.6145 94.2088 94.8394V94.8394C109.009 99.0643 124.432 90.4914 128.657 75.6913V75.6913C132.882 60.8911 148.305 52.3182 163.105 56.5431V56.5431C177.905 60.768 193.328 52.1951 197.553 37.3949V37.3949C201.777 22.5948 217.2 14.0219 232 18.2468L258.799 25.8966" stroke="#FF9A9A" stroke-width="76.1371"/>
<path d="M-78.623 148.878L-51.825 156.528C-37.0249 160.753 -21.602 152.18 -17.3771 137.38V137.38C-13.1522 122.579 2.27067 114.007 17.0708 118.231V118.231C31.871 122.456 47.2938 113.883 51.5187 99.0833V99.0833C55.7436 84.2832 71.1665 75.7102 85.9666 79.9351V79.9351C100.767 84.16 116.19 75.5871 120.415 60.787V60.787C124.639 45.9868 140.062 37.4139 154.862 41.6388V41.6388C169.663 45.8637 185.085 37.2908 189.31 22.4906V22.4906C193.535 7.69049 208.958 -0.882437 223.758 3.34247L250.556 10.9923" stroke="#FFACAD" stroke-width="76.1371"/>
<path d="M-83.748 136.134L-56.95 143.784C-42.1499 148.009 -26.727 139.436 -22.5021 124.636V124.636C-18.2772 109.836 -2.85433 101.263 11.9458 105.488V105.488C26.746 109.713 42.1688 101.14 46.3937 86.3397V86.3397C50.6186 71.5395 66.0415 62.9666 80.8416 67.1915V67.1915C95.6418 71.4164 111.065 62.8435 115.29 48.0433V48.0433C119.514 33.2432 134.937 24.6702 149.737 28.8952V28.8952C164.538 33.1201 179.96 24.5471 184.185 9.74699V9.74699C188.41 -5.05316 203.833 -13.6261 218.633 -9.40118L245.431 -1.75131" stroke="#FF9A9A" stroke-width="76.1371"/>
<path d="M-91.9922 121.229L-65.1942 128.879C-50.394 133.104 -34.9711 124.531 -30.7462 109.731V109.731C-26.5213 94.9306 -11.0985 86.3576 3.70168 90.5825V90.5825C18.5018 94.8075 33.9247 86.2345 38.1496 71.4344V71.4344C42.3745 56.6342 57.7974 48.0613 72.5975 52.2862V52.2862C87.3976 56.5111 102.821 47.9382 107.045 33.138V33.138C111.27 18.3379 126.693 9.76497 141.493 13.9899V13.9899C156.293 18.2148 171.716 9.64186 175.941 -5.15829V-5.15829C180.166 -19.9584 195.589 -28.5314 210.389 -24.3065L237.187 -16.6566" stroke="#FFACAD" stroke-width="76.1371"/>
<path d="M-100.695 105.574L-73.8973 113.224C-59.0971 117.449 -43.6743 108.876 -39.4494 94.0759V94.0759C-35.2245 79.2758 -19.8016 70.7029 -5.00145 74.9278V74.9278C9.7987 79.1527 25.2216 70.5797 29.4465 55.7796V55.7796C33.6714 40.9794 49.0942 32.4065 63.8944 36.6314V36.6314C78.6945 40.8563 94.1174 32.2834 98.3423 17.4833V17.4833C102.567 2.68311 117.99 -5.88981 132.79 -1.66491V-1.66491C147.59 2.56 163.013 -6.01293 167.238 -20.8131V-20.8131C171.463 -35.6132 186.886 -44.1861 201.686 -39.9612L228.484 -32.3114" stroke="#FF9A9A" stroke-width="76.1371"/>
<path d="M-108.936 90.6699L-82.1375 98.3198C-67.3374 102.545 -51.9145 93.9718 -47.6896 79.1716V79.1716C-43.4647 64.3715 -28.0418 55.7986 -13.2417 60.0235V60.0235C1.55846 64.2484 16.9813 55.6754 21.2062 40.8753V40.8753C25.4311 26.0752 40.854 17.5022 55.6541 21.7271V21.7271C70.4543 25.952 85.8771 17.3791 90.1021 2.57896V2.57896C94.327 -12.2212 109.75 -20.7941 124.55 -16.5692V-16.5692C139.35 -12.3443 154.773 -20.9172 158.998 -35.7174V-35.7174C163.223 -50.5175 178.646 -59.0904 193.446 -54.8655L220.244 -47.2157" stroke="#FFACAD" stroke-width="76.1371"/>
<path d="M-117.109 75.8931L-90.3113 83.5429C-75.5112 87.7678 -60.0883 79.1949 -55.8634 64.3948V64.3948C-51.6385 49.5946 -36.2157 41.0217 -21.4155 45.2466V45.2466C-6.61537 49.4715 8.80749 40.8986 13.0324 26.0984V26.0984C17.2573 11.2983 32.6802 2.72537 47.4803 6.95027V6.95027C62.2805 11.1752 77.7033 2.60225 81.9282 -12.1979V-12.1979C86.1531 -26.998 101.576 -35.571 116.376 -31.3461V-31.3461C131.176 -27.1212 146.599 -35.6941 150.824 -50.4942V-50.4942C155.049 -65.2944 170.472 -73.8673 185.272 -69.6424L212.07 -61.9925" stroke="#FF9A9A" stroke-width="76.1371"/>
<path d="M-125.354 60.9883L-98.5555 68.6382C-83.7553 72.8631 -68.3325 64.2901 -64.1076 49.49V49.49C-59.8827 34.6898 -44.4598 26.1169 -29.6597 30.3418V30.3418C-14.8595 34.5667 0.563354 25.9938 4.78826 11.1937V11.1937C9.01317 -3.60649 24.436 -12.1794 39.2362 -7.95451V-7.95451C54.0363 -3.7296 69.4592 -12.3025 73.6841 -27.1027V-27.1027C77.909 -41.9028 93.3319 -50.4758 108.132 -46.2508V-46.2508C122.932 -42.0259 138.355 -50.5989 142.58 -65.399V-65.399C146.805 -80.1992 162.228 -88.7721 177.028 -84.5472L203.826 -76.8973" stroke="#FFACAD" stroke-width="76.1371"/>
<path d="M-134.055 45.333L-107.257 52.9829C-92.4565 57.2078 -77.0336 48.6349 -72.8087 33.8347V33.8347C-68.5838 19.0346 -53.161 10.4616 -38.3608 14.6865V14.6865C-23.5607 18.9115 -8.13782 10.3385 -3.91291 -4.46162V-4.46162C0.311995 -19.2618 15.7349 -27.8347 30.535 -23.6098V-23.6098C45.3351 -19.3849 60.758 -27.9578 64.9829 -42.758V-42.758C69.2078 -57.5581 84.6307 -66.131 99.4308 -61.9061V-61.9061C114.231 -57.6812 129.654 -66.2541 133.879 -81.0543V-81.0543C138.104 -95.8544 153.527 -104.427 168.327 -100.202L195.125 -92.5526" stroke="#FF9A9A" stroke-width="76.1371"/>
</g>
</svg>
